<svg id="Brand" xmlns="http://www.w3.org/2000/svg" viewBox="0 0 350 105.57"><defs><style>.cls-1{fill:#ff99b6;}</style></defs><path class="cls-1" d="M233.12,39.35q-13.08.43-26.08,2l2.66-1.91c6.09-4.27,10.42-12.29,8.55-19.84C213.15,3.08,182.75,5.45,169,6c-14.5.61-33.77,6.88-42.55,19.24,9.51-11.6,19-10.41,31.86-13.64a35.64,35.64,0,0,1,6.16-1c9.46-.68,25.16-1.65,36,1.67,11.27,3.44,13.19,18.38,3.57,25.19l-6.45,5.15a318.33,318.33,0,0,0-55.38,13.61c-4.93,2.36-10.15,4.53-14.35,8.2a3.79,3.79,0,0,0-1.41,3.14c.18,1.53,1.88,2.25,2.88,2.43,4.61.68,9.15-.2,13.57-.74,2.6-.38,5.23-.89,7.82-1.41,18-4.13,34.91-12.26,50.32-22.43.43-.08.87-.14,1.3-.21,13.59-2.76,27.35-4.65,41.2-6.12ZM150,64.53c-4.88.89-10.17,2-15.26,2.23a1.35,1.35,0,0,1-.77-2.49c3-1.81,6.22-3.24,9.35-4.75,1.14-.49,2.34-.84,3.52-1.25A350.44,350.44,0,0,1,192.17,47,145.48,145.48,0,0,1,150,64.53Z"/><path class="cls-1" d="M142.85,95.25c1.07-3.11,1.27-6.12,2.45-9.14,9.51-16.54,19.12-33.32,25.41-51.37,1.45-2.84,3.78-5.71,4.73-8.85.42,3.28,1,6.64.53,9.91-6.31,18.29-16.15,35.3-25.68,52.06-2.07,2.51-5.15,5-7.44,7.39Z"/><path class="cls-1" d="M217.51,59.05a41,41,0,0,1-2.9,5.92,46.56,46.56,0,0,1-6.78,8,8.73,8.73,0,0,1-3.19,2.19c-2.76.45-2.9-2.2-2.57-4.55a14,14,0,0,1-4.69,4.27c-2.3,1.19-5.14.09-5.25-2.72a8.77,8.77,0,0,1,0-1l.49-.53c-.15.07-.31.13-.48.19.21-3.2,6.48-8.05,8.25-10.6-.57,2.24-5.54,6.56-5.76,8.74-.25,1.24-1.06,4.22.71,4.27s3.45-1.94,4.6-3.31a33.23,33.23,0,0,0,2.45-3.58,1.39,1.39,0,0,1,2.59,1c-.44,1.82-1.09,3.93-.81,5.75h0l-.06,0c-.13,0-.06,0,.07.07l0,0s0,0,0-.13c3.47-2,6.33-6,8.71-9.3C214.4,62.11,216,60.84,217.51,59.05Z"/><path class="cls-1" d="M192.12,70.79c0,.11,0,.23,0,.34l-.45.49a7.64,7.64,0,0,1-3.82,2.4c-1.47.22-2.71-1.4-2.73-2.66a6.27,6.27,0,0,1,0-1.14,31.93,31.93,0,0,1-4.55,3.88c-1.68,1.25-4.78,2.2-5.42-.88a6.88,6.88,0,0,1,.45-3.92,12.24,12.24,0,0,1,3.69-4.53c1.92-1.41,3.92-2.92,6.35-3.18,2.24-.29,3.18,1.3,1.95,3.2.17-2.44-.83-2.14-2.6-1-2.92,1.27-6.09,3.4-7.43,6.3a4.23,4.23,0,0,0-.22,3c.1.11,0,0,.16.08,2.56-.69,4.85-3.31,6.78-5.14a1.71,1.71,0,0,1,3.09.68c.05.77-.22,1.63-.1,2.37.06.43.12.63.32.76s.12,0,.28,0C189.09,72.1,190.77,71.36,192.12,70.79Z"/><path class="cls-1" d="M192.6,70.6l-.49.53c0-.11,0-.23,0-.34C192.29,70.73,192.45,70.67,192.6,70.6Z"/><path class="cls-1" d="M192.6,70.6l-.49.53c0-.11,0-.23,0-.34C192.29,70.73,192.45,70.67,192.6,70.6Z"/><path class="cls-1" d="M204.19,73.19l0,0c-.13-.08-.2,0-.07-.07l.06,0C204.17,73.14,204.19,73.18,204.19,73.19Z"/><path class="cls-1" d="M236.24,66.74a20.83,20.83,0,0,0-8.86,2s0-.1-.08-.16c-2-3.64-2.93-9,3.06-7.06-2.73-2.68-7.34-1.3-6.68,3a10.65,10.65,0,0,0,.85,3.21c-.62.21-1.26.48-1.73.65-2.25,1.68-5.06,4.25-7.87,3.78-.25-.11-.22-.13-.29-.27-.17-1.24,1.08-3.23,1.85-4.39.26-.94.56-1.89.81-2.91a7.62,7.62,0,0,0-4.1,4.36c-.61,1.36-1.25,3.28,0,4.59,2.87,2.76,10.3-2,11.72-4.81l0,0c.18.37.37.73.56,1.09a22.29,22.29,0,0,0-2.09,1.39,19.81,19.81,0,0,0-4.79,4.66A2.94,2.94,0,0,0,221,80.17c2.43.07,4.86.1,7.13-1.26,3.08-2.13,1.81-5.47.29-8.25.61-.31,1.24-.6,1.87-.87A49.94,49.94,0,0,1,236.24,66.74ZM221.13,78a.79.79,0,0,1-.46-1.38,20.78,20.78,0,0,1,5.89-5c.4.74.78,1.48,1.09,2.22C229.24,78,224,78.2,221.13,78Z"/><path class="cls-1" d="M218.86,64l-.08.12h0a2.14,2.14,0,0,1-.55-3l0,0h0A2.14,2.14,0,0,1,218.86,64Z"/><path class="cls-1" d="M322.3,32.69c2.79-5.52,5.11-9.55,4.83-16-.28-3.11-.48-5-2.72-5.42-25.36,0-61.15,27.47-76.44,50.4-11.08,17.42,2.9,18,14.65,17.16,11.77-1.3,22.49-3.67,34.32-4.8-11.53,3.53-23.14,7.15-35.14,7.79-8.48.64-24.91,1.1-22.22-14,2.93-11.51,13.91-22.37,21.51-29.86,15.66-14.51,33.57-26.52,53.3-31.41,5.06-.91,12.33-2.67,15.68,3.21,3.51,7.39-3.83,17.71-7.77,22.93Z"/><path class="cls-1" d="M312.5,67.72c-.29-.84-.83-2.59-1.87-2.29-.88-.06-2.07.82-2.84,1.43A48.92,48.92,0,0,0,301,74.27s-.7.9-.71.9a1.15,1.15,0,0,1-1.84-.07,1.19,1.19,0,0,1,0-1.27l.06-.1a56,56,0,0,0,3.84-7.67,15,15,0,0,0,2-3.59,8.75,8.75,0,0,1-.24,4.9,21.81,21.81,0,0,1,4.24-3.43C311.44,62.08,313.62,64.48,312.5,67.72Z"/><path class="cls-1" d="M339.45,73c-1.46-.73-.93-3.62-.94-5-3.15,1.74-6.35,4-9.76,5.08a35,35,0,0,1,6.72-7.38c.82-1,2.08-1.6,3-.29-.14-2.18-2.63-2.29-4.2-1.49a13.1,13.1,0,0,0-2.13,1.86,59,59,0,0,0-4.38,4.94l0,0a32.27,32.27,0,0,0-4.25,2.41,9,9,0,0,1-7,1.35c-3.4-.51-2.61-3.05-.74-5.31a11.16,11.16,0,0,0,5.3,1.35,3.56,3.56,0,0,0,3.18-4c-.29-4.17-4.18-3.73-6.76-1.84-5.19,3.35-9.06,11.42.06,12.07a9.86,9.86,0,0,0,8.79-3.67,1.85,1.85,0,0,0-.06,1.21,1.65,1.65,0,0,0,1.81,1.09c3.08-.59,5.68-2.24,8.33-3.78.4,2.31,1.92,4.26,4.75,3.3,2.2-1.16,3.51-3,4.86-4.87C344,71.26,341.73,72.93,339.45,73Zm-18.71-7.51a1.42,1.42,0,0,1,.79,0c.46.17.51.75.58,1.26.08,1-.31,1.43-1.47,1.66a13.83,13.83,0,0,1-4.77.62C317.36,67.21,319.48,65.67,320.74,65.45Z"/><path class="cls-1" d="M27.67,12.74c2-.14,6.28-.08,10,0A45.16,45.16,0,0,1,43,10.11h-.08c-3.51.07-12.17-.07-15.53.24a21.7,21.7,0,0,0-19,22.42c.19,18.72.47,37.78.89,56.48.41-18.71.72-37.76.9-56.48C9.72,22.79,17.72,13.56,27.67,12.74Z"/><path class="cls-1" d="M137.51,16.93c-4.49,1.81-8.61,5.26-10.22,10l-1.49,4.59c-2.86,8.71-5.86,17.4-9.25,25.91,0-13.55.09-28.81.11-36.81l-.48-.44-10.61-9.83-.43-.4h-.58l-28,.06a45.21,45.21,0,0,1,6,2.9l21.39,0,9.74,9c0,9.43.07,27.47.13,42-1.16,2.62-2.39,5.2-3.79,7.69a21.24,21.24,0,0,1-2.6,3.8c-1.8,2.2-2.54,5.53-1,8.07,2.41,3.69,8.84,2.55,9.78-1.79a12.21,12.21,0,0,0,.18-2.68c0-4,0-9.94.08-16.62a311.3,311.3,0,0,0,10.31-30.49l1.34-4.6c1.41-4.59,5.19-7.93,9.51-9.87a45.49,45.49,0,0,1,9.1-3A45.46,45.46,0,0,0,137.51,16.93ZM109.72,83.06c-2.61-.86-2.06-4.63-.6-6.35a37.17,37.17,0,0,0,4.74-8.18c0,4.59,0,8.62.06,11.59C114.12,82.36,111.73,83.76,109.72,83.06Z"/><path class="cls-1" d="M58.35,98.94C12.42,96.82-2.84,38.29,35.56,13.57a44.81,44.81,0,0,1,6-3.17l1.54-.7,1.59-.55A45.94,45.94,0,0,1,66.3,6.83c22,2.95,40.28,23.16,40.19,45.55l-1,0A46.09,46.09,0,0,0,88.29,19a22.58,22.58,0,0,0-2.57-2,42.56,42.56,0,0,0-8.45-4.67,45.64,45.64,0,0,0-6.1-2.08c-1.49-.42-3.22-.63-4.75-1a43.86,43.86,0,0,0-29.36,6.36C0,39.51,15,95.13,58.35,98.94Zm0,0C12.64,95.09-.85,36,39.5,13.45c17.3-9.08,37.51-6.14,51.84,7a47.13,47.13,0,0,1,15.15,31.88l-1,0C105.18,20.3,71.32-2.21,41.81,11.06a54.34,54.34,0,0,0-7.31,4c-.89.65-3.1,2.31-4,3C-1.07,45.38,16.43,97,58.35,98.94Z"/><path class="cls-1" d="M82,31.76C95.22,42.9,95.31,64,83.1,75.91c-8.8,9-23.21,11.68-34.54,6.22A28.81,28.81,0,0,1,39,74.85,31.92,31.92,0,0,0,60.5,82.6C86.5,81.71,99,51.28,82,31.76Z"/><path class="cls-1" d="M109.53,10a12.35,12.35,0,0,1,7.24,6.71A12.43,12.43,0,0,1,109.53,10Z"/><path class="cls-1" d="M60.51,49.15c1.47-2.94,2.94-4.41,5.89-4.41a5.91,5.91,0,0,1,5.89,5.89c0,5.95-10.07,10.33-11.88,14-1.7-3.55-12.21-7.62-11.68-14a6.08,6.08,0,0,1,5.89-5.89c2.94,0,4.41,1.47,5.89,4.41"/></svg>