<?xml version="1.0" encoding="UTF-8"?>
<svg id="Layer_1" data-name="Layer 1" xmlns="http://www.w3.org/2000/svg" viewBox="0 0 32 32">
  <defs>
    <style>
      .cls-1 {
        fill: #ff99b6;
      }

      .cls-1, .cls-2 {
        stroke-width: 0px;
      }

      .cls-2 {
        fill: #231f20;
      }
    </style>
  </defs>
  <rect class="cls-2" width="32" height="32"/>
  <path class="cls-1" d="M17.1,13.63c1.17-1.27,2.02-2.75,2.33-4.47.67-5.35-6.4-6.04-10.09-4.61-3.19,1.08-5.92,3.32-7.56,6.17,1.89-2.64,4.63-4.66,7.77-5.51,4.21-1.37,11.29.25,7.91,5.84-.55.89-1.23,1.68-1.99,2.37-.27.25-.62.39-.99.45-1.76.25-3.51.63-5.22,1.14,1.48-2.37,3.04-4.69,4.85-6.85-2.03,1.45-4.14,3.73-6.03,6.38-.51.71-1.23,1.24-2.04,1.55-1.26.48-2.49,1.04-3.62,1.76-.33.17-.72.57-.49,1.05.1.25.41.39.53.42.87.16,1.69.18,2.5,0,.08-.02.14.06.1.14-1.8,3.41-3.04,6.94-3.28,9.86,1.15-3.29,2.78-6.33,4.5-9.34.4-.69,1.07-1.18,1.84-1.39,2.69-.7,5.85-2.09,8.17-4.19.33-.3.74-.52,1.19-.59.69-.09,1.38-.17,2.07-.23-.82-.03-1.64-.01-2.46.03ZM4.13,18.19c.74-.43,1.51-.79,2.29-1.13l-.16.27c-.16.27-.43.47-.74.54l-1.39.32ZM7.86,17.31c.08-.14.17-.27.25-.41.27-.44.67-.77,1.15-.95,0,0,0,0,0,0,1.62-.6,3.27-1.1,4.93-1.49-1.87,1.33-4.11,2.23-6.34,2.85Z"/>
  <path class="cls-1" d="M30.27,9.94c0-1.04.14-3.17-.34-4.53-.31-.88-1.34-1.27-2.18-.85-.5.25-.97.6-1.39.89-4.11,3.37-7.38,9.28-9.13,14.27-.92,2.62-.96,5.43-.93,6.89.02.98.77,1.42,1.71,1.26,3.64-.65,7.34-2.63,10.43-5.37-1.38,1.67-2.95,3.19-4.68,4.53-1.3.98-4.02,2.71-6.24,2.91-1.39.12-2.67-.83-3.05-2.17-.22-.77-.3-1.4-.27-2.48.19-2.26,1.28-5.27,2.1-7.33,1.64-4.04,3.9-7.93,7.01-11.07,4.98-4.86,8.26-4.76,6.96,3.04h0Z"/>
</svg>