<?xml version="1.0" encoding="utf-8"?>
<!-- Generator: Adobe Illustrator 27.5.0, SVG Export Plug-In . SVG Version: 6.00 Build 0)  -->
<svg version="1.1" id="Layer_1" xmlns="http://www.w3.org/2000/svg" xmlns:xlink="http://www.w3.org/1999/xlink" x="0px" y="0px"
	 viewBox="0 0 2000 2000" style="enable-background:new 0 0 2000 2000;" xml:space="preserve">
<g>
	
		<radialGradient id="SVGID_1_" cx="999.9562" cy="999.8428" r="59.9524" gradientTransform="matrix(16.78 0 0 16.78 -15777.042 -15777.3613)" gradientUnits="userSpaceOnUse">
		<stop  offset="0" style="stop-color:#414042"/>
		<stop  offset="0.348" style="stop-color:#3E3E3F"/>
		<stop  offset="0.5588" style="stop-color:#363537"/>
		<stop  offset="0.733" style="stop-color:#282729"/>
		<stop  offset="0.8864" style="stop-color:#141415"/>
		<stop  offset="1" style="stop-color:#000000"/>
	</radialGradient>
	<rect style="fill:url(#SVGID_1_);" width="2000" height="2000"/>
	<g>
		<polygon style="fill:#231F20;" points="1010.075,0 1002.23,7.845 994.385,0 979.728,0 1002.23,22.502 1024.74,0 		"/>
		<polygon style="fill:#231F20;" points="1046.223,0 1002.23,43.987 958.243,0 943.586,0 998.568,54.98 1002.23,58.643 1060.888,0 
					"/>
		<polygon style="fill:#231F20;" points="1082.373,0 1002.23,80.135 922.095,0 907.438,0 998.568,91.13 1002.23,94.792 1097.021,0 
					"/>
		<polygon style="fill:#231F20;" points="1118.521,0 1002.23,116.285 885.945,0 871.288,0 998.568,127.27 1002.23,130.94 1133.17,0 
					"/>
		<polygon style="fill:#231F20;" points="1154.655,0 1002.23,152.425 849.796,0 835.14,0 1002.23,167.082 1169.32,0 		"/>
		<polygon style="fill:#231F20;" points="1190.803,0 1002.23,188.575 813.646,0 798.991,0 1002.23,203.23 1205.468,0 		"/>
		<polygon style="fill:#231F20;" points="1226.953,0 1002.23,224.723 777.498,0 762.85,0 998.568,235.71 1002.23,239.38 1241.618,0 
					"/>
		<polygon style="fill:#231F20;" points="1263.101,0 1002.23,260.865 741.356,0 726.701,0 998.568,271.858 1002.23,275.528 
			1277.767,0 		"/>
		<polygon style="fill:#231F20;" points="1299.251,0 1002.23,297.013 705.208,0 690.551,0 998.568,308.008 1002.23,311.67 
			1313.917,0 		"/>
		<polygon style="fill:#231F20;" points="1335.4,0 1002.23,333.162 669.06,0 654.403,0 998.568,344.148 1002.23,347.818 1350.048,0 
					"/>
		<polygon style="fill:#231F20;" points="1371.55,0 1002.23,369.312 632.918,0 618.253,0 998.568,380.298 1002.23,383.968 
			1386.198,0 		"/>
		<polygon style="fill:#231F20;" points="1407.698,0 1002.23,405.452 596.761,0 582.105,0 998.568,416.447 1002.23,420.108 
			1422.346,0 		"/>
		<polygon style="fill:#231F20;" points="1443.831,0 1002.23,441.602 560.62,0 545.963,0 1002.23,456.258 1458.496,0 		"/>
		<polygon style="fill:#231F20;" points="1479.98,0 1002.23,477.75 524.471,0 509.815,0 998.568,488.737 1002.23,492.407 
			1494.645,0 		"/>
		<polygon style="fill:#231F20;" points="1516.13,0 1002.23,513.892 488.321,0 473.665,0 998.568,524.887 1002.23,528.548 
			1530.795,0 		"/>
		<polygon style="fill:#231F20;" points="1552.278,0 1002.23,550.04 452.173,0 437.517,0 998.568,561.035 1002.23,564.697 
			1566.943,0 		"/>
		<polygon style="fill:#231F20;" points="1588.428,0 1002.23,586.19 416.023,0 401.375,0 998.568,597.177 1002.23,600.847 
			1603.091,0 		"/>
		<polygon style="fill:#231F20;" points="1624.576,0 1002.23,622.338 379.883,0 365.226,0 998.568,633.325 1002.23,636.987 
			1639.225,0 		"/>
		<polygon style="fill:#231F20;" points="1660.726,0 1002.23,658.48 343.733,0 329.076,0 1002.23,673.137 1675.375,0 		"/>
		<polygon style="fill:#231F20;" points="1696.875,0 1002.23,694.628 307.585,0 292.928,0 998.56,705.623 1002.23,709.285 
			1711.523,0 		"/>
		<polygon style="fill:#231F20;" points="1733.008,0 1002.23,730.77 271.435,0 256.778,0 998.56,741.765 1002.23,745.427 
			1747.673,0 		"/>
		<polygon style="fill:#231F20;" points="1769.156,0 1002.23,766.918 235.295,0 220.638,0 998.56,777.913 1002.23,781.575 
			1783.821,0 		"/>
		<polygon style="fill:#231F20;" points="1805.306,0 1002.23,803.068 199.136,0 184.488,0 998.56,814.063 1002.23,817.725 
			1819.97,0 		"/>
		<polygon style="fill:#231F20;" points="1841.455,0 1002.23,839.208 162.996,0 148.34,0 998.56,850.203 1002.23,853.865 
			1856.103,0 		"/>
		<polygon style="fill:#231F20;" points="1877.605,0 1002.23,875.358 126.846,0 112.19,0 998.56,886.353 1002.23,890.015 
			1892.253,0 		"/>
		<polygon style="fill:#231F20;" points="1913.753,0 1002.23,911.507 90.698,0 76.041,0 998.56,922.502 1002.23,926.163 1928.401,0 
					"/>
		<polygon style="fill:#231F20;" points="1949.901,0 1002.23,947.657 54.548,0 39.9,0 998.56,958.643 1002.23,962.313 1964.55,0 		
			"/>
		<polygon style="fill:#231F20;" points="1986.051,0 1002.23,983.797 18.408,0 3.751,0 1002.23,998.453 2000,0.7 2000,0 		"/>
		<polygon style="fill:#231F20;" points="991.317,2000 1002.23,1989.078 1013.143,2000 1027.8,2000 1002.23,1974.43 976.66,2000 		
			"/>
		<polygon style="fill:#231F20;" points="955.168,2000 1002.23,1952.947 1049.283,2000 1063.948,2000 1002.23,1938.282 940.52,2000 
					"/>
		<polygon style="fill:#231F20;" points="919.018,2000 1002.23,1916.78 1085.45,2000 1100.098,2000 1002.23,1902.132 904.37,2000 		
			"/>
		<polygon style="fill:#231F20;" points="882.878,2000 1002.23,1880.648 1121.581,2000 1136.246,2000 1002.23,1865.983 
			868.221,2000 		"/>
		<polygon style="fill:#231F20;" points="846.728,2000 1002.23,1844.498 1157.731,2000 1172.396,2000 1002.23,1829.833 
			832.071,2000 		"/>
		<polygon style="fill:#231F20;" points="810.58,2000 1002.23,1808.35 1193.88,2000 1208.545,2000 1002.23,1793.702 795.923,2000 		
			"/>
		<polygon style="fill:#231F20;" points="774.43,2000 1002.23,1772.2 1230.03,2000 1244.678,2000 1002.23,1757.552 759.773,2000 		
			"/>
		<polygon style="fill:#231F20;" points="738.281,2000 1002.23,1736.052 1266.178,2000 1280.826,2000 1002.23,1721.403 
			723.633,2000 		"/>
		<polygon style="fill:#231F20;" points="702.131,2000 1002.23,1699.902 1302.326,2000 1316.976,2000 1002.23,1685.253 
			687.483,2000 		"/>
		<polygon style="fill:#231F20;" points="665.991,2000 1002.23,1663.753 1338.476,2000 1353.125,2000 1002.23,1649.105 
			651.335,2000 		"/>
		<polygon style="fill:#231F20;" points="629.841,2000 1002.23,1627.605 1374.625,2000 1389.273,2000 1002.23,1612.955 
			615.185,2000 		"/>
		<polygon style="fill:#231F20;" points="593.693,2000 1002.23,1591.472 1410.758,2000 1425.423,2000 1002.23,1576.807 
			579.036,2000 		"/>
		<polygon style="fill:#231F20;" points="557.551,2000 1002.23,1555.322 1446.908,2000 1461.556,2000 1002.23,1540.658 
			542.895,2000 		"/>
		<polygon style="fill:#231F20;" points="521.403,2000 1002.23,1519.173 1483.056,2000 1497.705,2000 1002.23,1504.525 
			506.746,2000 		"/>
		<polygon style="fill:#231F20;" points="485.253,2000 1002.23,1483.023 1519.205,2000 1533.855,2000 1002.23,1468.375 
			470.596,2000 		"/>
		<polygon style="fill:#231F20;" points="449.105,2000 1002.23,1446.875 1555.355,2000 1570.003,2000 1002.23,1432.227 
			434.448,2000 		"/>
		<polygon style="fill:#231F20;" points="412.955,2000 1002.23,1410.727 1591.503,2000 1606.151,2000 1002.23,1396.077 
			398.298,2000 		"/>
		<polygon style="fill:#231F20;" points="376.806,2000 1002.23,1374.577 1627.653,2000 1642.301,2000 1002.23,1359.928 362.15,2000 
					"/>
		<polygon style="fill:#231F20;" points="340.658,2000 1002.23,1338.443 1663.785,2000 1678.45,2000 1002.23,1323.78 326.008,2000 
					"/>
		<polygon style="fill:#231F20;" points="304.508,2000 1002.23,1302.278 1699.935,2000 1714.6,2000 1002.23,1287.63 289.86,2000 		
			"/>
		<polygon style="fill:#231F20;" points="268.368,2000 1002.23,1266.147 1736.083,2000 1750.731,2000 1002.23,1251.482 
			253.711,2000 		"/>
		<polygon style="fill:#231F20;" points="232.218,2000 1002.23,1229.997 1772.233,2000 1786.881,2000 1002.23,1215.332 
			217.561,2000 		"/>
		<polygon style="fill:#231F20;" points="196.07,2000 1002.23,1193.848 1808.381,2000 1823.03,2000 1002.23,1179.183 181.413,2000 
					"/>
		<polygon style="fill:#231F20;" points="159.928,2000 1002.23,1157.698 1844.531,2000 1859.18,2000 1002.23,1143.05 145.271,2000 
					"/>
		<polygon style="fill:#231F20;" points="123.78,2000 1002.23,1121.55 1880.68,2000 1895.328,2000 1002.23,1106.902 109.123,2000 		
			"/>
		<polygon style="fill:#231F20;" points="87.63,2000 1002.23,1085.4 1916.813,2000 1931.478,2000 1002.23,1070.752 72.973,2000 		
			"/>
		<polygon style="fill:#231F20;" points="51.481,2000 1002.23,1049.252 1952.978,2000 1967.626,2000 1002.23,1034.603 36.825,2000 
					"/>
		<polygon style="fill:#231F20;" points="15.331,2000 1002.23,1013.11 1989.111,2000 2000,2000 2000,1996.223 1005.891,1002.117 
			1002.23,998.453 0.683,2000 		"/>
		<polygon style="fill:#231F20;" points="0,990.308 0,1006.575 4.468,1002.108 8.13,998.445 		"/>
		<polygon style="fill:#231F20;" points="0,954.158 0,968.815 29.621,998.445 0,1028.077 0,1042.725 40.617,1002.108 
			44.278,998.445 		"/>
		<polygon style="fill:#231F20;" points="0,918.018 0,932.673 65.771,998.445 0,1064.225 0,1078.873 80.428,998.445 		"/>
		<polygon style="fill:#231F20;" points="0,881.868 0,896.525 101.911,998.445 0,1100.358 0,1115.023 112.906,1002.108 
			116.568,998.445 		"/>
		<polygon style="fill:#231F20;" points="0,845.72 0,860.377 138.061,998.445 0,1136.507 0,1151.172 152.718,998.445 		"/>
		<polygon style="fill:#231F20;" points="0,809.578 0,824.227 174.21,998.445 0,1172.657 0,1187.322 188.867,998.445 		"/>
		<polygon style="fill:#231F20;" points="0,773.43 0,788.087 210.351,998.445 0,1208.805 0,1223.453 221.346,1002.108 
			225.008,998.445 		"/>
		<polygon style="fill:#231F20;" points="0,737.28 0,751.937 246.5,998.445 0,1244.955 0,1259.603 257.495,1002.108 
			261.156,998.445 		"/>
		<polygon style="fill:#231F20;" points="0,701.132 0,715.788 282.65,998.445 0,1281.103 0,1295.752 293.645,1002.108 
			297.306,998.445 		"/>
		<polygon style="fill:#231F20;" points="0,664.982 0,679.638 318.79,998.445 0,1317.253 0,1331.902 329.785,1002.108 
			333.446,998.445 		"/>
		<polygon style="fill:#231F20;" points="0,628.842 0,643.498 354.94,998.445 0,1353.402 0,1368.05 365.935,1002.108 
			369.596,998.445 		"/>
		<polygon style="fill:#231F20;" points="0,592.692 0,607.348 391.088,998.445 0,1389.55 0,1404.2 402.083,1002.108 
			405.745,998.445 		"/>
		<polygon style="fill:#231F20;" points="0,556.543 0,571.2 427.238,998.445 0,1425.683 0,1440.348 441.886,998.445 		"/>
		<polygon style="fill:#231F20;" points="0,520.402 0,535.058 463.378,998.445 0,1461.833 0,1476.497 474.373,1002.108 
			478.035,998.445 		"/>
		<polygon style="fill:#231F20;" points="0,484.253 0,498.91 499.528,998.445 0,1497.982 0,1512.647 510.521,1002.108 
			514.185,998.445 		"/>
		<polygon style="fill:#231F20;" points="0,448.103 0,462.76 535.668,998.445 0,1534.132 0,1548.795 546.663,1002.108 
			550.325,998.445 		"/>
		<polygon style="fill:#231F20;" points="0,411.955 0,426.612 571.818,998.445 0,1570.28 0,1584.945 582.813,1002.108 
			586.475,998.445 		"/>
		<polygon style="fill:#231F20;" points="0,375.813 0,390.462 607.967,998.445 0,1606.428 0,1621.077 618.961,1002.108 
			622.623,998.445 		"/>
		<polygon style="fill:#231F20;" points="0,339.665 0,354.322 644.117,998.445 0,1642.578 0,1657.227 658.765,998.445 		"/>
		<polygon style="fill:#231F20;" points="0,303.515 0,318.172 680.256,998.445 0,1678.727 0,1693.375 691.251,1002.117 
			694.913,998.445 		"/>
		<polygon style="fill:#231F20;" points="0,267.375 0,282.032 716.406,998.445 0,1714.877 0,1729.525 727.393,1002.117 
			731.063,998.445 		"/>
		<polygon style="fill:#231F20;" points="0,231.225 0,245.882 752.555,998.445 0,1751.008 0,1765.673 763.541,1002.117 
			767.211,998.445 		"/>
		<polygon style="fill:#231F20;" points="0,195.077 0,209.733 788.705,998.445 0,1787.175 0,1801.823 799.69,1002.117 
			803.361,998.445 		"/>
		<polygon style="fill:#231F20;" points="0,158.927 0,173.583 824.845,998.445 0,1823.307 0,1837.972 835.831,1002.117 
			839.501,998.445 		"/>
		<polygon style="fill:#231F20;" points="0,122.778 0,137.435 860.995,998.445 0,1859.457 0,1874.122 871.98,1002.117 
			875.651,998.445 		"/>
		<polygon style="fill:#231F20;" points="0,86.637 0,101.293 897.143,998.445 0,1895.605 0,1910.27 908.13,1002.117 
			911.791,998.445 		"/>
		<polygon style="fill:#231F20;" points="0,50.488 0,65.145 933.285,998.445 0,1931.755 0,1946.42 944.278,1002.117 
			947.941,998.445 		"/>
		<polygon style="fill:#231F20;" points="0,14.34 0,28.995 969.433,998.445 0,1967.903 0,1982.552 984.081,998.445 		"/>
		<polygon style="fill:#231F20;" points="2000,994.775 1996.338,998.445 2000,1002.108 		"/>
		<polygon style="fill:#231F20;" points="2000,1023.6 1974.836,998.445 2000,973.283 2000,958.627 1960.188,998.445 2000,1038.248 
					"/>
		<polygon style="fill:#231F20;" points="2000,1059.75 1938.688,998.445 2000,937.133 2000,922.485 1924.04,998.445 2000,1074.398 
					"/>
		<polygon style="fill:#231F20;" points="2000,1095.898 1902.538,998.445 2000,900.993 2000,886.337 1887.89,998.445 2000,1110.547 
					"/>
		<polygon style="fill:#231F20;" points="2000,1132.048 1866.39,998.445 2000,864.843 2000,850.187 1851.741,998.445 2000,1146.697 
					"/>
		<polygon style="fill:#231F20;" points="2000,1168.197 1830.256,998.445 2000,828.695 2000,814.047 1815.591,998.445 
			2000,1182.845 		"/>
		<polygon style="fill:#231F20;" points="2000,1204.345 1794.108,998.445 2000,792.553 2000,777.897 1779.443,998.445 
			2000,1218.993 		"/>
		<polygon style="fill:#231F20;" points="2000,1240.478 1757.958,998.445 2000,756.405 2000,741.748 1743.31,998.445 2000,1255.143 
					"/>
		<polygon style="fill:#231F20;" points="2000,1276.643 1721.81,998.445 2000,720.255 2000,705.598 1707.145,998.445 2000,1291.292 
					"/>
		<polygon style="fill:#231F20;" points="2000,1312.777 1685.66,998.445 2000,684.107 2000,669.45 1671.011,998.445 2000,1327.442 
					"/>
		<polygon style="fill:#231F20;" points="2000,1348.925 1649.511,998.445 2000,647.957 2000,633.3 1634.863,998.445 2000,1363.59 		
			"/>
		<polygon style="fill:#231F20;" points="2000,1385.075 1613.363,998.445 2000,611.817 2000,597.16 1598.715,998.445 2000,1399.74 
					"/>
		<polygon style="fill:#231F20;" points="2000,1421.223 1577.23,998.445 2000,575.667 2000,561.018 1562.565,998.445 2000,1435.872 
					"/>
		<polygon style="fill:#231F20;" points="2000,1457.373 1541.08,998.445 2000,539.518 2000,524.862 1526.417,998.445 2000,1472.022 
					"/>
		<polygon style="fill:#231F20;" points="2000,1493.522 1504.931,998.445 2000,503.377 2000,488.72 1490.267,998.445 2000,1508.17 
					"/>
		<polygon style="fill:#231F20;" points="2000,1529.672 1468.783,998.445 2000,467.228 2000,452.572 1454.118,998.445 2000,1544.32 
					"/>
		<polygon style="fill:#231F20;" points="2000,1565.82 1432.633,998.445 2000,431.078 2000,416.423 1417.985,998.445 2000,1580.468 
					"/>
		<polygon style="fill:#231F20;" points="2000,1601.97 1396.485,998.445 2000,394.93 2000,380.273 1381.836,998.445 2000,1616.618 
					"/>
		<polygon style="fill:#231F20;" points="2000,1638.102 1360.335,998.445 2000,358.788 2000,344.132 1345.686,998.445 
			2000,1652.767 		"/>
		<polygon style="fill:#231F20;" points="2000,1674.268 1324.186,998.445 2000,322.64 2000,307.983 1309.538,998.445 2000,1688.917 
					"/>
		<polygon style="fill:#231F20;" points="2000,1710.4 1288.036,998.445 2000,286.492 2000,271.835 1273.388,998.445 2000,1725.065 
					"/>
		<polygon style="fill:#231F20;" points="2000,1746.55 1251.888,998.445 2000,250.342 2000,235.693 1237.24,998.445 2000,1761.215 
					"/>
		<polygon style="fill:#231F20;" points="2000,1782.698 1215.755,998.445 2000,214.202 2000,199.545 1201.09,998.445 2000,1797.347 
					"/>
		<polygon style="fill:#231F20;" points="2000,1818.848 1179.606,998.445 2000,178.052 2000,163.395 1164.941,998.445 
			2000,1833.497 		"/>
		<polygon style="fill:#231F20;" points="2000,1854.997 1143.456,998.445 2000,141.903 2000,127.247 1128.808,998.445 
			2000,1869.645 		"/>
		<polygon style="fill:#231F20;" points="2000,1891.147 1107.308,998.445 2000,105.753 2000,91.105 1092.66,998.445 2000,1905.795 
					"/>
		<polygon style="fill:#231F20;" points="2000,1927.295 1071.158,998.445 2000,69.613 2000,54.957 1056.51,998.445 2000,1941.943 		
			"/>
		<polygon style="fill:#231F20;" points="2000,1963.443 1035.01,998.445 2000,33.463 2000,18.807 1024.023,994.783 
			1020.361,998.445 2000,1978.092 		"/>
	</g>
	<g>
		<polygon style="fill:#231F20;" points="1010.075,0 1003.906,6.16 997.745,0 983.09,0 1000.243,17.155 1003.906,20.817 1024.74,0 
					"/>
		<polygon style="fill:#231F20;" points="1046.223,0 1003.906,42.31 961.596,0 946.94,0 1000.243,53.303 1003.906,56.967 
			1060.888,0 		"/>
		<polygon style="fill:#231F20;" points="1082.373,0 1003.906,78.458 925.448,0 910.791,0 1000.243,89.453 1003.906,93.115 
			1097.021,0 		"/>
		<polygon style="fill:#231F20;" points="1118.521,0 1003.906,114.608 889.298,0 874.65,0 1000.243,125.593 1003.906,129.265 
			1133.17,0 		"/>
		<polygon style="fill:#231F20;" points="1154.655,0 1003.906,150.748 853.158,0 838.493,0 1003.906,165.405 1169.32,0 		"/>
		<polygon style="fill:#231F20;" points="1190.803,0 1003.906,186.898 817.008,0 802.351,0 1003.906,201.555 1205.468,0 		"/>
		<polygon style="fill:#231F20;" points="1226.953,0 1003.906,223.047 780.86,0 766.203,0 1000.243,234.033 1003.906,237.695 
			1241.618,0 		"/>
		<polygon style="fill:#231F20;" points="1263.101,0 1003.906,259.188 744.71,0 730.053,0 1000.243,270.182 1003.906,273.845 
			1277.767,0 		"/>
		<polygon style="fill:#231F20;" points="1299.251,0 1003.906,295.337 708.561,0 693.905,0 1000.243,306.332 1003.906,309.993 
			1313.917,0 		"/>
		<polygon style="fill:#231F20;" points="1335.4,0 1003.906,331.487 672.411,0 657.763,0 1000.243,342.472 1003.906,346.143 
			1350.048,0 		"/>
		<polygon style="fill:#231F20;" points="1371.55,0 1003.906,367.627 636.271,0 621.615,0 1000.243,378.622 1003.906,382.283 
			1386.198,0 		"/>
		<polygon style="fill:#231F20;" points="1407.698,0 1003.906,403.777 600.121,0 585.465,0 1000.243,414.77 1003.906,418.433 
			1422.346,0 		"/>
		<polygon style="fill:#231F20;" points="1443.831,0 1003.906,439.925 563.973,0 549.317,0 1003.906,454.582 1458.496,0 		"/>
		<polygon style="fill:#231F20;" points="1479.98,0 1003.906,476.067 527.823,0 513.167,0 1000.243,487.06 1003.906,490.723 
			1494.645,0 		"/>
		<polygon style="fill:#231F20;" points="1516.13,0 1003.906,512.215 491.675,0 477.018,0 1000.243,523.21 1003.906,526.872 
			1530.795,0 		"/>
		<polygon style="fill:#231F20;" points="1552.278,0 1003.906,548.365 455.533,0 440.876,0 1000.243,559.358 1003.906,563.022 
			1566.926,0 		"/>
		<polygon style="fill:#231F20;" points="1588.428,0 1003.906,584.505 419.385,0 404.728,0 1000.243,595.5 1003.906,599.17 
			1603.076,0 		"/>
		<polygon style="fill:#231F20;" points="1624.576,0 1003.906,620.655 383.235,0 368.578,0 1000.243,631.648 1003.906,635.312 
			1639.225,0 		"/>
		<polygon style="fill:#231F20;" points="1660.726,0 1003.906,656.803 347.086,0 332.43,0 1003.906,671.46 1675.375,0 		"/>
		<polygon style="fill:#231F20;" points="1696.875,0 1003.906,692.952 310.938,0 296.281,0 1000.236,703.938 1003.906,707.608 
			1711.523,0 		"/>
		<polygon style="fill:#231F20;" points="1733.008,0 1003.906,729.093 274.796,0 260.14,0 1000.236,740.088 1003.906,743.75 
			1747.673,0 		"/>
		<polygon style="fill:#231F20;" points="1769.156,0 1003.906,765.243 238.646,0 223.991,0 1000.236,776.228 1003.906,779.898 
			1783.821,0 		"/>
		<polygon style="fill:#231F20;" points="1805.306,0 1003.906,801.392 202.498,0 187.841,0 1000.236,812.378 1003.906,816.048 
			1819.97,0 		"/>
		<polygon style="fill:#231F20;" points="1841.455,0 1003.906,837.533 166.35,0 151.701,0 1000.236,848.527 1003.906,852.188 
			1856.103,0 		"/>
		<polygon style="fill:#231F20;" points="1877.605,0 1003.906,873.682 130.2,0 115.543,0 1000.236,884.677 1003.906,888.338 
			1892.253,0 		"/>
		<polygon style="fill:#231F20;" points="1913.753,0 1003.906,909.83 94.051,0 79.403,0 1000.236,920.817 1003.906,924.487 
			1928.401,0 		"/>
		<polygon style="fill:#231F20;" points="1949.901,0 1003.906,945.98 57.91,0 43.253,0 1000.236,956.967 1003.906,960.628 
			1964.55,0 		"/>
		<polygon style="fill:#231F20;" points="1986.051,0 1003.906,982.12 21.761,0 7.105,0 1003.906,996.777 2000,0.7 2000,0 		"/>
		<polygon style="fill:#231F20;" points="991.317,2000 1003.906,1987.402 1016.503,2000 1031.151,2000 1003.906,1972.753 
			976.66,2000 		"/>
		<polygon style="fill:#231F20;" points="955.168,2000 1003.906,1951.27 1052.653,2000 1067.301,2000 1003.906,1936.605 
			940.52,2000 		"/>
		<polygon style="fill:#231F20;" points="919.018,2000 1003.906,1915.105 1088.801,2000 1103.45,2000 1003.906,1900.455 
			904.37,2000 		"/>
		<polygon style="fill:#231F20;" points="882.878,2000 1003.906,1878.972 1124.951,2000 1139.6,2000 1003.906,1864.307 
			868.221,2000 		"/>
		<polygon style="fill:#231F20;" points="846.728,2000 1003.906,1842.822 1161.083,2000 1175.748,2000 1003.906,1828.158 
			832.071,2000 		"/>
		<polygon style="fill:#231F20;" points="810.58,2000 1003.906,1806.673 1197.233,2000 1211.898,2000 1003.906,1792.008 
			795.923,2000 		"/>
		<polygon style="fill:#231F20;" points="774.43,2000 1003.906,1770.523 1233.381,2000 1248.046,2000 1003.906,1755.875 
			759.773,2000 		"/>
		<polygon style="fill:#231F20;" points="738.281,2000 1003.906,1734.375 1269.531,2000 1284.18,2000 1003.906,1719.727 
			723.633,2000 		"/>
		<polygon style="fill:#231F20;" points="702.131,2000 1003.906,1698.227 1305.68,2000 1320.328,2000 1003.906,1683.577 
			687.483,2000 		"/>
		<polygon style="fill:#231F20;" points="665.991,2000 1003.906,1662.077 1341.83,2000 1356.478,2000 1003.906,1647.428 
			651.335,2000 		"/>
		<polygon style="fill:#231F20;" points="629.841,2000 1003.906,1625.928 1377.978,2000 1392.626,2000 1003.906,1611.28 
			615.185,2000 		"/>
		<polygon style="fill:#231F20;" points="593.693,2000 1003.906,1589.795 1414.128,2000 1428.776,2000 1003.906,1575.13 
			579.036,2000 		"/>
		<polygon style="fill:#231F20;" points="557.551,2000 1003.906,1553.647 1450.26,2000 1464.925,2000 1003.906,1538.982 
			542.895,2000 		"/>
		<polygon style="fill:#231F20;" points="521.403,2000 1003.906,1517.497 1486.41,2000 1501.075,2000 1003.906,1502.832 
			506.746,2000 		"/>
		<polygon style="fill:#231F20;" points="485.253,2000 1003.906,1481.348 1522.558,2000 1537.223,2000 1003.906,1466.7 
			470.596,2000 		"/>
		<polygon style="fill:#231F20;" points="449.105,2000 1003.906,1445.198 1558.708,2000 1573.356,2000 1003.906,1430.533 
			434.448,2000 		"/>
		<polygon style="fill:#231F20;" points="412.955,2000 1003.906,1409.05 1594.856,2000 1609.505,2000 1003.906,1394.402 
			398.298,2000 		"/>
		<polygon style="fill:#231F20;" points="376.806,2000 1003.906,1372.9 1631.006,2000 1645.655,2000 1003.906,1358.252 362.15,2000 
					"/>
		<polygon style="fill:#231F20;" points="340.658,2000 1003.906,1336.752 1667.155,2000 1681.803,2000 1003.906,1322.103 
			326.008,2000 		"/>
		<polygon style="fill:#231F20;" points="304.508,2000 1003.906,1300.602 1703.303,2000 1717.951,2000 1003.906,1285.953 
			289.86,2000 		"/>
		<polygon style="fill:#231F20;" points="268.368,2000 1003.906,1264.47 1739.436,2000 1754.101,2000 1003.906,1249.805 
			253.711,2000 		"/>
		<polygon style="fill:#231F20;" points="232.218,2000 1003.906,1228.32 1775.586,2000 1790.25,2000 1003.906,1213.655 
			217.561,2000 		"/>
		<polygon style="fill:#231F20;" points="196.07,2000 1003.906,1192.172 1811.735,2000 1826.383,2000 1003.906,1177.507 
			181.413,2000 		"/>
		<polygon style="fill:#231F20;" points="159.928,2000 1003.906,1156.022 1847.883,2000 1862.533,2000 1003.906,1141.373 
			145.271,2000 		"/>
		<polygon style="fill:#231F20;" points="123.78,2000 1003.906,1119.873 1884.033,2000 1898.681,2000 1003.906,1105.225 
			109.123,2000 		"/>
		<polygon style="fill:#231F20;" points="87.63,2000 1003.906,1083.723 1920.181,2000 1934.83,2000 1003.906,1069.075 72.973,2000 
					"/>
		<polygon style="fill:#231F20;" points="51.481,2000 1003.906,1047.575 1956.331,2000 1970.98,2000 1003.906,1032.927 36.825,2000 
					"/>
		<polygon style="fill:#231F20;" points="15.331,2000 1003.906,1011.433 1992.465,2000 2000,2000 2000,1992.872 1003.906,996.777 
			0.683,2000 		"/>
		<polygon style="fill:#231F20;" points="0,986.955 0,1006.575 6.145,1000.432 9.815,996.762 		"/>
		<polygon style="fill:#231F20;" points="0,950.805 0,965.462 31.298,996.762 0,1028.077 0,1042.725 42.293,1000.432 
			45.955,996.762 		"/>
		<polygon style="fill:#231F20;" points="0,914.657 0,929.313 67.448,996.762 0,1064.225 0,1078.873 82.105,996.762 		"/>
		<polygon style="fill:#231F20;" points="0,878.515 0,893.163 103.596,996.762 0,1100.358 0,1115.023 114.583,1000.432 
			118.245,996.762 		"/>
		<polygon style="fill:#231F20;" points="0,842.367 0,857.023 139.738,996.77 0,1136.507 0,1151.172 154.395,996.77 		"/>
		<polygon style="fill:#231F20;" points="0,806.217 0,820.873 175.886,996.77 0,1172.657 0,1187.322 190.543,996.77 		"/>
		<polygon style="fill:#231F20;" points="0,770.068 0,784.725 212.028,996.77 0,1208.805 0,1223.453 223.021,1000.432 
			226.685,996.77 		"/>
		<polygon style="fill:#231F20;" points="0,733.92 0,748.577 248.176,996.77 0,1244.955 0,1259.603 259.171,1000.432 
			262.833,996.77 		"/>
		<polygon style="fill:#231F20;" points="0,697.778 0,712.427 284.326,996.77 0,1281.103 0,1295.752 295.32,1000.432 
			298.983,996.77 		"/>
		<polygon style="fill:#231F20;" points="0,661.63 0,676.285 320.467,996.77 0,1317.253 0,1331.902 331.461,1000.432 
			335.123,996.77 		"/>
		<polygon style="fill:#231F20;" points="0,625.48 0,640.137 356.617,996.77 0,1353.402 0,1368.05 367.61,1000.432 371.273,996.77 
					"/>
		<polygon style="fill:#231F20;" points="0,589.34 0,603.995 392.765,996.77 0,1389.55 0,1404.2 403.76,1000.432 407.421,996.77 		
			"/>
		<polygon style="fill:#231F20;" points="0,553.19 0,567.847 428.915,996.77 0,1425.683 0,1440.348 443.571,996.77 		"/>
		<polygon style="fill:#231F20;" points="0,517.042 0,531.698 465.055,996.77 0,1461.833 0,1476.497 476.05,1000.432 479.72,996.77 
					"/>
		<polygon style="fill:#231F20;" points="0,480.892 0,495.548 501.205,996.77 0,1497.982 0,1512.647 512.198,1000.432 
			515.861,996.77 		"/>
		<polygon style="fill:#231F20;" points="0,444.752 0,459.408 537.353,996.77 0,1534.132 0,1548.795 548.34,1000.432 552.01,996.77 
					"/>
		<polygon style="fill:#231F20;" points="0,408.602 0,423.258 573.503,996.77 0,1570.28 0,1584.945 584.488,1000.432 
			588.151,996.77 		"/>
		<polygon style="fill:#231F20;" points="0,372.453 0,387.11 609.643,996.77 0,1606.428 0,1621.077 620.638,1000.432 624.3,996.77 
					"/>
		<polygon style="fill:#231F20;" points="0,336.312 0,350.96 645.793,996.77 0,1642.578 0,1657.227 660.441,996.77 		"/>
		<polygon style="fill:#231F20;" points="0,300.163 0,314.82 681.933,996.77 0,1678.727 0,1693.375 692.928,1000.432 696.59,996.77 
					"/>
		<polygon style="fill:#231F20;" points="0,264.013 0,278.67 718.083,996.77 0,1714.877 0,1729.525 729.076,1000.432 732.74,996.77 
					"/>
		<polygon style="fill:#231F20;" points="0,227.873 0,242.522 754.231,996.77 0,1751.008 0,1765.673 765.226,1000.432 
			768.888,996.77 		"/>
		<polygon style="fill:#231F20;" points="0,191.723 0,206.372 790.381,996.77 0,1787.175 0,1801.823 801.367,1000.432 
			805.036,996.77 		"/>
		<polygon style="fill:#231F20;" points="0,155.575 0,170.232 826.521,996.77 0,1823.307 0,1837.972 837.517,1000.432 
			841.178,996.77 		"/>
		<polygon style="fill:#231F20;" points="0,119.425 0,134.082 862.671,996.77 0,1859.457 0,1874.122 873.665,1000.432 
			877.326,996.77 		"/>
		<polygon style="fill:#231F20;" points="0,83.277 0,97.933 898.82,996.77 0,1895.605 0,1910.27 909.806,1000.432 913.476,996.77 		
			"/>
		<polygon style="fill:#231F20;" points="0,47.135 0,61.783 934.961,996.77 0,1931.755 0,1946.42 945.955,1000.432 949.618,996.77 
					"/>
		<polygon style="fill:#231F20;" points="0,10.987 0,25.643 971.11,996.77 0,1967.903 0,1982.552 985.767,996.77 		"/>
		<polygon style="fill:#231F20;" points="2000,1020.247 1976.513,996.762 2000,973.283 2000,958.627 1961.865,996.762 
			2000,1034.897 		"/>
		<polygon style="fill:#231F20;" points="2000,1056.397 1940.365,996.762 2000,937.133 2000,922.485 1925.717,996.762 
			2000,1071.045 		"/>
		<polygon style="fill:#231F20;" points="2000,1092.545 1904.231,996.762 2000,900.993 2000,886.337 1889.567,996.762 
			2000,1107.193 		"/>
		<polygon style="fill:#231F20;" points="2000,1128.695 1868.083,996.77 2000,864.843 2000,850.187 1853.418,996.77 2000,1143.343 
					"/>
		<polygon style="fill:#231F20;" points="2000,1164.843 1831.933,996.77 2000,828.695 2000,814.047 1817.268,996.77 2000,1179.492 
					"/>
		<polygon style="fill:#231F20;" points="2000,1200.993 1795.785,996.77 2000,792.553 2000,777.897 1781.12,996.77 2000,1215.642 		
			"/>
		<polygon style="fill:#231F20;" points="2000,1237.125 1759.635,996.77 2000,756.405 2000,741.748 1744.986,996.77 2000,1251.79 		
			"/>
		<polygon style="fill:#231F20;" points="2000,1273.275 1723.486,996.77 2000,720.255 2000,705.598 1708.838,996.77 2000,1287.94 		
			"/>
		<polygon style="fill:#231F20;" points="2000,1309.423 1687.336,996.77 2000,684.107 2000,669.45 1672.688,996.77 2000,1324.072 		
			"/>
		<polygon style="fill:#231F20;" points="2000,1345.573 1651.188,996.77 2000,647.957 2000,633.3 1636.54,996.77 2000,1360.238 		
			"/>
		<polygon style="fill:#231F20;" points="2000,1381.722 1615.055,996.77 2000,611.817 2000,597.16 1600.39,996.77 2000,1396.37 		
			"/>
		<polygon style="fill:#231F20;" points="2000,1417.872 1578.906,996.77 2000,575.667 2000,561.018 1564.241,996.77 2000,1432.52 		
			"/>
		<polygon style="fill:#231F20;" points="2000,1454.02 1542.756,996.77 2000,539.518 2000,524.862 1528.091,996.77 2000,1468.668 		
			"/>
		<polygon style="fill:#231F20;" points="2000,1490.17 1506.608,996.77 2000,503.377 2000,488.72 1491.96,996.77 2000,1504.818 		
			"/>
		<polygon style="fill:#231F20;" points="2000,1526.318 1470.458,996.77 2000,467.228 2000,452.572 1455.795,996.77 2000,1540.967 
					"/>
		<polygon style="fill:#231F20;" points="2000,1562.452 1434.31,996.77 2000,431.078 2000,416.423 1419.661,996.77 2000,1577.117 		
			"/>
		<polygon style="fill:#231F20;" points="2000,1598.6 1398.16,996.77 2000,394.93 2000,380.273 1383.511,996.77 2000,1613.265 		"/>
		<polygon style="fill:#231F20;" points="2000,1634.75 1362.011,996.77 2000,358.788 2000,344.132 1347.363,996.77 2000,1649.413 		
			"/>
		<polygon style="fill:#231F20;" points="2000,1670.898 1325.863,996.77 2000,322.64 2000,307.983 1311.215,996.77 2000,1685.563 		
			"/>
		<polygon style="fill:#231F20;" points="2000,1707.048 1289.73,996.77 2000,286.492 2000,271.835 1275.065,996.77 2000,1721.712 		
			"/>
		<polygon style="fill:#231F20;" points="2000,1743.197 1253.58,996.77 2000,250.342 2000,235.693 1238.917,996.77 2000,1757.862 		
			"/>
		<polygon style="fill:#231F20;" points="2000,1779.345 1217.431,996.77 2000,214.202 2000,199.545 1202.767,996.77 2000,1793.993 
					"/>
		<polygon style="fill:#231F20;" points="2000,1815.495 1181.283,996.77 2000,178.052 2000,163.395 1166.633,996.77 2000,1830.143 
					"/>
		<polygon style="fill:#231F20;" points="2000,1851.643 1145.133,996.77 2000,141.903 2000,127.247 1130.485,996.77 2000,1866.292 
					"/>
		<polygon style="fill:#231F20;" points="2000,1887.793 1108.985,996.77 2000,105.753 2000,91.105 1094.336,996.77 2000,1902.442 		
			"/>
		<polygon style="fill:#231F20;" points="2000,1923.925 1072.835,996.77 2000,69.613 2000,54.957 1058.186,996.77 2000,1938.59 		
			"/>
		<polygon style="fill:#231F20;" points="2000,1960.075 1036.686,996.77 2000,33.463 2000,18.807 1025.7,993.107 1022.038,996.77 
			2000,1974.74 		"/>
	</g>
</g>
</svg>
